<svg xmlns="http://www.w3.org/2000/svg" xmlns:xlink="http://www.w3.org/1999/xlink" viewBox="137.31 106.13 760.87 806.48"><path fill="#B9D4F1" d="M587.35 106.219C587.94 106.177 589.866 106.001 590.242 106.318C595.679 110.893 604.826 131.057 607.908 137.179C610.844 136.867 613.73 136.409 616.648 135.973C620.066 131.049 633.252 109.237 636.327 108.752C641.059 108.007 675.826 114.932 680.55 116.889C682.567 127.458 685.212 139.091 687.638 149.604C691.052 150.437 694.818 151.574 698.236 152.526C701.418 148.461 717.592 133.716 722.079 131.756C726.473 131.62 757.294 148.658 763.57 152.083C762.357 161.87 759.87 177.965 759.419 187.315C762.899 189.546 764.884 190.778 767.956 193.489C777.727 188.458 787.718 183.862 797.897 179.717C807.161 188.285 815.714 198.237 824.549 207.25C826.845 209.591 829.151 212.099 831.169 214.683C827.912 222.417 819.46 237.85 815.456 245.739C816.932 248.028 818.462 250.138 820.047 252.347C830.976 252.6 844.354 250.352 855.86 250.381C862.052 263.082 868.879 276.972 874.207 289.966C875.626 293.425 856.513 312.222 853.561 316.55C855.045 320.503 855.676 321.92 857.816 325.514C867.506 327.637 880.36 329.807 889.6 332.286C893.019 342.127 896.61 368.244 898.184 378.745C890.952 382.3 876.132 389.229 870.075 393.408C869.924 396.45 869.161 403.819 871.86 405.688C880.005 411.33 889.209 416.361 897.671 421.617C894.338 434.967 893.353 451.595 890.124 465.102C880.729 467.259 870.78 469.38 861.541 471.976C860.205 474.711 858.932 478.528 857.864 481.463C863.903 489.091 873.409 497.444 879.062 505.064C873.262 520.126 865.753 533.204 859.97 548.274C849.683 547.219 840.543 546.099 830.378 544.232C827.692 548.301 824.945 552.068 822.337 556.248C827.92 566.442 832.462 573.727 837.964 584.576C832.067 591.837 815.623 610.205 808.308 616.03C805.351 618.384 783.48 609.594 778.641 607.753C775.082 610.771 771.255 613.099 767.819 616.255C776.726 646.7 782.888 646.375 753.937 664.935C755.832 667.207 757.653 669.539 759.399 671.927C759.89 682.242 756.049 691.939 752.545 701.58C756.684 709.695 760.175 717.777 763.852 726.095C767.999 727.158 791.332 733.775 791.84 737.237C793.923 751.46 793.833 771.151 790.846 785.161C789.802 790.057 769.192 796.255 764.17 798.402C760.745 810.053 758.022 817.073 752.562 827.807C756.601 836.097 759.039 839.603 761.258 848.536C758.521 859.443 740.178 875.868 730.934 882.712C726.273 886.165 710.74 877.663 705.159 875.515C699.326 877.32 689.194 881.925 682.662 884.368C679.088 892.906 674.428 905.716 668.207 912.112C660.442 913.214 631.868 912.182 623.022 911.99C617.145 905.28 613.361 894.806 609.971 886.446C603.299 883.377 594.927 880.376 587.722 877.176C579.563 880.648 571.024 884.241 562.458 886.468C554.307 880.709 534.128 862.603 527.251 855.409C529.028 848.223 533.814 835.18 537.187 828.63C532.078 821.246 527.823 811.771 524.674 803.305C520.326 801.212 499.84 795.227 500.276 789.74C500.68 784.655 502.335 777.348 502.491 771.267C500.624 771.103 498.618 770.834 496.742 770.621C496.914 778.526 498.265 792.083 497.374 799.226C496.859 803.346 472.26 817.68 468.025 820.026C462.977 817.959 450.199 808.047 444.739 804.237C443.68 805.718 440.252 828.744 439.147 833.028C428.32 836.368 415.757 840.547 404.854 843.15C399.711 838.285 390.608 826.59 386.034 820.824C380.985 828.665 377.311 838.379 373.27 846.994C363.57 847.763 348.588 847.141 338.549 846.875C334.987 841.687 328.884 825.814 326.522 819.75C319.483 826.603 313.352 834.79 306.437 841.718C297.833 839.352 278.842 833.85 271.193 830.338C270.45 820.78 269.727 811.415 268.088 801.962C258.529 805.738 253.023 810.914 244.565 815.176C236.115 810.75 220.219 798.063 212.685 791.849C214.788 783.939 217.76 775.711 220.221 767.792C218.89 766.892 217.092 765.94 215.656 765.13C208.769 765.591 199.445 768.919 192.213 770.486C185.986 763.409 175.72 750.064 171.15 742.232C173.536 738.062 184.042 723.221 182.996 719.416C179.568 715.858 162.825 717.706 156.791 715.746C154.023 713.458 146.772 688.815 145.631 684.134C155.417 674.563 174.44 663.857 150.595 656.878C146.591 655.707 142.872 654.206 138.697 653.114C137.915 641.373 136.326 629.764 138.168 618.075C144.759 615.062 154.11 611.909 161.016 609.584C161.012 606.899 161.158 604.136 161.26 601.447C157.274 597.891 146.123 590.793 141.225 587.482C142.777 575.604 146.089 563.927 149.994 552.632C155.897 551.054 167.57 549.989 173.982 549.397L177.235 541.978C172.212 536.513 165.209 528.199 160.619 522.426C166.874 511.536 173.973 500.218 182.644 491.089C187.651 491.62 205.621 496.91 208.406 495.447C209.137 494.565 209.996 493.658 209.791 492.472C209 487.903 206.671 482.722 205.327 478.223C203.508 472.136 203.099 469.223 202.704 463.032C200.083 459.783 196.841 457.056 193.727 454.264C188.666 456.761 183.547 459.065 178.459 461.594C170.089 455.605 160.891 445.262 154.699 437.115C155.779 434.347 161.721 424.541 163.582 421.108C160.307 415.369 158.71 412.227 156.735 405.963C151.043 404.017 144.396 402.345 138.537 400.628C137.698 389.213 137.412 379.952 137.347 368.435C143.572 366.063 149.232 364.233 155.767 362.964C157.572 355.478 158.529 350.751 161.737 343.683C158.847 339.839 153.834 332.985 151.829 328.654C158.872 316.91 165.425 310.385 175.571 301.786C180.008 303.874 184.591 307.342 189.335 309.413C194.879 305.526 202.455 302.139 208.666 299.114C209.591 293.27 210.5 288.762 211.849 283.001C220.741 281.437 236.66 280.691 245.411 281.233C247.136 286.436 248.844 293.289 250.337 298.685C254.812 299.293 262.906 301.356 267.709 302.401C272.083 298.852 277.063 294.599 281.667 291.478C289.875 296.133 301.646 304.219 307.819 311.076C306.057 316.986 303.76 322.738 302.412 328.741C305.364 333.652 307.514 337.9 310.786 342.826C314.089 330.088 316.896 315.186 319.669 302.157C328.582 301.198 340.607 301.072 349.927 300.455C351.784 297.569 354.044 294.516 356.049 291.693C349.48 282.546 342.717 273.596 336.596 264.126C340.983 255.271 355.537 236.14 361.685 228.373C367.12 228.598 386.126 231.531 391.591 232.692C394.261 230.6 396.789 228.352 399.348 226.126C395.559 216.158 391.887 206.146 388.332 196.091C394.671 188.617 416.376 170.626 424.822 165.505C434.816 169.427 442.071 175.403 452.58 178.573C455.644 177.362 458.39 175.941 461.333 174.471C461.297 163.156 461.01 151.843 460.474 140.54C465.114 137.98 472.11 135.172 477.121 133.011C485.09 129.587 493.027 126.09 500.932 122.52C504.329 124.422 523.503 142.031 527.429 145.563C541.889 142.747 540.046 120.846 545.653 111.386C547.217 108.748 582.195 106.661 587.35 106.219ZM429.794 799.191C436.124 796.399 443.054 793.483 449.014 790.023C455.758 795.133 462.625 800.474 469.419 805.48C474.967 801.816 480.802 798.083 486.261 794.331L481.751 769.935C485.78 766.32 490.503 762.259 494.348 758.548C499.407 758.945 504.504 759.383 509.563 759.723C509.616 766.802 509.778 773.88 510.05 780.954C519.947 785.825 526.356 788.855 536.582 792.61C540.737 806.042 543.577 814.361 551.646 826.224C549.197 832.494 546.405 840.285 543.746 846.332L542.208 851.212C549.688 860.348 555.644 864.019 563.742 871.821C572.986 868.545 579.794 865.793 588.659 861.611C600.337 867.781 607.009 871.049 620.196 874.276C623.135 882.463 627.255 892.507 629.9 900.515C640.543 900.396 651.187 900.394 661.83 900.509C665.516 891.595 669.04 883.105 671.896 873.88C685.194 869.694 690.75 867.623 703.195 861.013C711.176 864.533 719.559 868.405 727.576 871.737C735.039 864.273 742.596 856.894 749.659 849.052C746.521 841.814 743.038 833.505 738.514 827.094C747.454 812.893 750.439 805.035 754.771 788.596C763.146 785.429 772.49 782.509 780.498 778.98L780.501 743.901C773.413 741.201 761.416 737.225 753.921 736.251C749.274 722.163 746.838 715.355 738.331 702.647C742.036 694.767 745.344 686.706 748.241 678.494C739.37 670.154 731.349 663.854 721.863 656.319C714.244 660.596 706.505 664.805 699.408 669.915C688.365 665.431 681.777 663.035 670.35 659.711C668.181 653.017 663.254 638.857 662.203 632.485C650.704 632.707 639.203 632.774 627.702 632.685C625.169 641.586 622.605 651.142 619.375 659.757C607.386 663.083 598.965 665.904 587.923 672.336C579.558 667.015 571.317 661.681 563.341 655.776C560.716 653.833 550.668 650.048 546.987 648.503C547.892 640.776 548.402 633.008 548.516 625.228C555.145 621.728 562.965 617.682 569.158 613.444C568.506 606.936 567.766 600.28 567.221 593.777C559.852 592.547 552.536 591.024 545.288 589.212C543.269 581.967 541.193 574.739 539.061 567.527C545.546 562.527 553.323 555.797 558.702 549.635C555.377 543.344 552.214 537.391 548.611 531.26C541.145 532.771 533.39 533.735 526.104 535.277C522.174 529.379 517.86 522.563 513.204 517.309C517.937 510.335 522.794 503.446 527.773 496.645C522.684 490.767 517.459 485.007 512.103 479.372C504.704 483.296 495.827 486.814 489.007 490.737C482.682 484.55 477.32 480.943 471.045 475.446C474.219 467.177 476.096 459.707 478.906 451.621C473.36 448.059 465.784 443.004 459.918 440.085C453.642 445.242 445.248 451.856 439.711 457.557C434.477 454.98 429.057 452.131 423.448 450.556L423.513 424.273L402.881 419.308C397.742 426.468 392.101 434.043 387.87 441.748C380.069 440.624 372.128 439.502 364.239 439.283C362.865 434.745 358.397 417.985 355.287 415.254L354.324 415.238C347.77 415.618 341.008 416.107 334.464 416.203C332.474 424.477 330.516 433.148 328.247 441.317C320.693 442.911 313.834 444.311 306.443 446.491C300.829 438.955 296.203 432.652 289.455 425.988C282.693 429.474 275.82 432.74 268.847 435.783C270.53 443.587 272.372 451.621 273.915 459.431C267.72 462.46 261.27 466.019 255.7 470.105C248.725 465.289 240.755 460.008 234.263 454.719C228.02 459.838 221.611 464.753 215.049 469.456C218.791 477.438 222.579 485.869 226.452 493.747C221.218 498.753 215.77 503.953 211.102 509.502C203.293 507.31 195.46 505.203 187.605 503.18C183.141 509.274 179.139 515.305 174.956 521.6C180.407 527.337 187.203 534.139 192.206 540.103C189.006 547.194 185.862 554.311 182.773 561.452C174.89 561.456 167.717 561.414 159.851 562.097C158.042 568.234 155.676 575.561 154.157 581.672C160.639 586.374 167.208 591.137 174.194 595.075C173.247 602.044 172.054 610.59 171.908 617.625C164.429 619.51 157.255 621.448 150.028 624.204C149.904 631.155 149.859 638.106 149.892 645.058C157.176 647.289 164.764 649.721 172.224 651.212L176.849 673.565C170.74 677.144 164.709 680.855 158.761 684.694C160.601 691.817 162.619 698.892 164.813 705.913C172.866 705.772 181.218 705.516 189.247 705.575C192.244 711.971 194.527 716.64 198.518 722.582C193.639 727.954 188.967 734.121 184.46 739.856C188.349 745.507 192.526 751.83 196.656 757.229C204.084 754.59 211.474 751.849 218.827 749.008C223.838 754.562 228.415 759.505 233.976 764.574C231.918 772.634 228.935 780.543 226.975 788.329C232.786 792.088 239.02 796.113 244.48 800.382C250.951 796.083 257.007 791.188 262.568 785.763C269.384 789.764 274.648 792.89 282.008 795.927C281.99 804.353 282.155 812.78 282.502 821.199C288.891 823.383 295.794 825.6 302.089 827.928C306.949 821.364 312.232 813.919 317.373 807.671C324.508 809.189 329.921 810.273 337.221 811.111C339.855 819.095 342.546 827.059 345.292 835.005C351.627 834.928 358.853 835.006 365.112 834.714C368.423 827.09 371.478 819.358 374.275 811.53C380.193 811.428 387.227 810.567 393.175 809.785C398.727 816.049 404.46 822.6 409.42 829.351C415.808 827.872 422.402 825.604 428.674 823.598C429.448 815.271 429.597 807.532 429.794 799.191ZM741.818 655.842C748.559 652.084 755.387 647.593 761.934 643.439C759.827 633.503 755.499 620.521 752.465 610.609C759.5 605.641 768.239 597.266 774.868 591.36C782.842 595.15 794.107 600.108 802.363 602.926C808.449 596.331 814.322 589.736 820.511 583.207C816.259 574.608 809.76 564.165 804.759 555.776C810.032 549.456 816.804 537.006 821.042 529.533C830.22 531.206 841.137 531.937 850.564 533.014C853.959 525 858.22 516.476 861.99 508.568C854.567 500.479 848.255 493.631 840.178 486.277C841.885 478.031 845.341 468.308 847.443 459.701C857.047 458.308 868.318 455.574 877.649 453.079C879.008 444.764 880.586 436.487 882.379 428.256C872.971 422.846 863.738 417.418 853.984 412.661C853.896 403.489 853.695 394.319 853.382 385.151C861.641 381.815 873.019 375.235 881.32 370.927C880.12 361.814 878.615 352.745 876.809 343.733C866.084 341.52 856.254 340.166 845.379 338.867C842.796 330.04 839.853 321.738 836.815 313.072C841.015 307.048 853.215 294.478 858.603 288.664C854.598 280.643 850.365 272.738 845.908 264.96C836.347 265.839 823.374 266.863 814.068 268.706C808.456 259.81 803.007 252.242 796.731 243.8C802.668 234.895 807.993 225.596 812.666 215.968C806.596 209.342 800.415 202.817 794.127 196.396C784.03 200.988 775.055 205.12 765.246 210.289C757.675 203.749 749.747 197.814 741.723 191.85L747.828 159.173C740.162 155.079 732.142 151.248 724.328 147.413C716.417 155.14 708.017 162.151 700.244 170.03C690.63 166.06 682.072 163.187 672.146 160.106C671.342 149.421 670.401 138.301 668.873 127.69C663.024 127.137 648.988 123.993 643.235 122.493C637.278 132.102 631.406 141.764 625.622 151.479C617.422 149.91 606.458 149.856 598.039 149.782L582.882 119.87C573.864 120.809 565.837 121.648 556.779 122.08C553.689 132.592 550.768 143.154 548.019 153.761C539.843 155.237 530.626 158.294 522.809 161.014C516.279 153.438 506.694 144.848 499.337 138.05C490.69 141.802 482.675 145.402 474.411 149.943C476.181 157.774 476.973 170.692 478.207 179.225C468.692 184.523 460.891 189.084 452.411 196.063C444.154 190.711 435.347 185.535 426.907 180.424C418.924 186.62 411.463 193.363 403.977 200.144C407.945 209.156 412.006 218.128 416.16 227.056C409.115 233.468 402.761 240.601 397.203 248.338C387.986 245.817 376.513 243.784 367.013 241.917C362.197 249.14 357.331 256.33 352.415 263.485C358.547 271.599 365.524 279.954 371.959 287.88C366.858 297.078 363.045 305.104 359.501 314.982C350.699 314.484 337.032 314.814 328.285 315.551C325.704 324.594 323.322 333.692 321.14 342.84C329.589 348.45 338.133 353.917 346.768 359.238C344.877 368.379 343.434 378.722 343.47 388.008C332.503 393.683 323.39 397.159 311.924 401.545C312.389 405.736 312.968 409.915 313.661 414.075C310.528 417.008 306.865 420.625 303.649 423.37L312.856 433.776C315.704 429.88 316.572 427.991 317.882 423.345C320.75 418.729 323.618 410.201 325.524 404.83C337.213 404.064 352.44 402.535 363.858 402.356C368.573 410.864 370.207 415.414 373.319 424.519L373.585 425.462C375.555 427.163 379.411 427.015 382.005 427.108C385.528 422.247 389.018 417.362 392.474 412.454C394.871 409.043 396.145 407.973 399.729 405.884C403.913 406.839 408.11 407.74 412.317 408.588C419.972 410.417 426.694 412.114 434.216 414.48C435.599 422.428 437.529 430.756 438.746 438.59L443.781 435.533C434.999 400.498 437.775 366.817 453.496 334.036C489.657 349.091 536.488 378.321 517.762 424.041C511.83 438.525 502.282 442.039 491.783 452.026L488.367 468.154C497.95 465.031 503.585 462.666 512.179 457.243C512.919 459.032 515.789 467.02 516.478 467.497C524.714 473.196 532.196 483.552 538.608 490.883C539.982 492.769 541.002 494.206 542.579 495.952C541.143 498.507 537.566 504.339 537.476 506.944C535.761 511.848 534.618 514.883 533.665 520.032C536.372 520.019 540.07 520.136 542.666 519.733C546.325 519.521 549.634 519.629 553.299 519.716C561.513 503.512 569.589 490.146 587.78 484.306C631.196 470.368 654.57 516.728 666.969 549.499C640.608 562.373 616.327 565.632 587.25 563.265C579.916 562.668 572.581 561.133 565.297 560.275L556.87 570.588C558.898 574.247 559.316 575.298 560.59 579.284C564.523 580.703 576.978 584.434 578.846 586.664C579.639 593.366 580.411 601.53 581.439 608.138L581.477 617.439C578.079 620.092 573.783 623.223 570.906 626.316L563.596 630.278L563.756 640.943C566.858 643.115 571.362 646.063 574.04 648.545C575.741 656.088 584.531 663.282 590.744 667.469C598.939 663.116 600.426 661.002 609.741 657.06C611.408 650.901 615.601 633.132 617.845 628.437C621.657 621.094 630.384 622.175 637.621 621.804C646.606 621.343 655.631 620.795 664.619 621.251C666.377 621.693 668.599 622.622 670.332 623.282C674.109 631.942 676.99 643.174 679.4 652.281C683.381 652.658 688.849 654.077 692.867 654.992C693.376 651.767 693.999 648.56 694.734 645.378C701.895 642.218 707.496 639.417 714.355 635.762C716.641 638.006 722.528 644.605 724.969 646.052C730.858 649.541 735.893 651.949 741.818 655.842ZM599.359 498.176C578.97 500.409 569.847 516.756 565.706 535.105C567.524 539.203 570.446 544.775 574.918 545.948C585.074 548.611 605.335 549.51 615.425 548.546C628.67 547.53 635.73 545.269 648.126 541.533C637.516 520.62 627.121 496.083 599.359 498.176ZM234.25 403.104C247.187 403.108 257.671 392.611 257.65 379.674C257.63 366.737 247.113 356.273 234.176 356.318C221.274 356.363 210.844 366.846 210.864 379.748C210.885 392.65 221.348 403.1 234.25 403.104ZM331.096 368.908C327.907 370.657 323.696 373.2 320.574 374.764C321.795 376.094 323.001 377.478 324.352 378.667L331.915 378.867C331.929 376.72 332.235 370.646 331.646 369.019L331.096 368.908ZM461.435 353.714C455.42 373.312 450.64 408.092 458.111 427.346C467.293 431.584 473.864 434.86 482.617 439.871C486.445 437.259 489.137 435.057 492.69 432.119C524.806 398.103 494.425 369.435 461.435 353.714Z"/><path fill="#010051" d="M354.324 415.238L355.287 415.254C358.397 417.985 362.865 434.745 364.239 439.283C372.128 439.502 380.069 440.624 387.87 441.748C392.101 434.043 397.742 426.468 402.881 419.308L423.513 424.273L423.448 450.556C429.057 452.131 434.477 454.98 439.711 457.557C445.248 451.856 453.642 445.242 459.918 440.085C465.784 443.004 473.36 448.059 478.906 451.621C476.096 459.707 474.219 467.177 471.045 475.446C477.32 480.943 482.682 484.55 489.007 490.737C495.827 486.814 504.704 483.296 512.103 479.372C517.459 485.007 522.684 490.767 527.773 496.645C522.794 503.446 517.937 510.335 513.204 517.309C517.86 522.563 522.174 529.379 526.104 535.277C533.39 533.735 541.145 532.771 548.611 531.26C552.214 537.391 555.377 543.344 558.702 549.635C553.323 555.797 545.546 562.527 539.061 567.527C541.193 574.739 543.269 581.967 545.288 589.212C552.536 591.024 559.852 592.547 567.221 593.777C567.766 600.28 568.506 606.936 569.158 613.444C562.965 617.682 555.145 621.728 548.516 625.228C548.402 633.008 547.892 640.776 546.987 648.503C550.668 650.048 560.716 653.833 563.341 655.776C571.317 661.681 579.558 667.015 587.923 672.336C598.965 665.904 607.386 663.083 619.375 659.757C622.605 651.142 625.169 641.586 627.702 632.685C639.203 632.774 650.704 632.707 662.203 632.485C663.254 638.857 668.181 653.017 670.35 659.711C681.777 663.035 688.365 665.431 699.408 669.915C706.505 664.805 714.244 660.596 721.863 656.319C731.349 663.854 739.37 670.154 748.241 678.494C745.344 686.706 742.036 694.767 738.331 702.647C746.838 715.355 749.274 722.163 753.921 736.251C761.416 737.225 773.413 741.201 780.501 743.901L780.498 778.98C772.49 782.509 763.146 785.429 754.771 788.596C750.439 805.035 747.454 812.893 738.514 827.094C743.038 833.505 746.521 841.814 749.659 849.052C742.596 856.894 735.039 864.273 727.576 871.737C719.559 868.405 711.176 864.533 703.195 861.013C690.75 867.623 685.194 869.694 671.896 873.88C669.04 883.105 665.516 891.595 661.83 900.509C651.187 900.394 640.543 900.396 629.9 900.515C627.255 892.507 623.135 882.463 620.196 874.276C607.009 871.049 600.337 867.781 588.659 861.611C579.794 865.793 572.986 868.545 563.742 871.821C555.644 864.019 549.688 860.348 542.208 851.212L543.746 846.332C546.405 840.285 549.197 832.494 551.646 826.224C543.577 814.361 540.737 806.042 536.582 792.61C526.356 788.855 519.947 785.825 510.05 780.954C509.778 773.88 509.616 766.802 509.563 759.723C504.504 759.383 499.407 758.945 494.348 758.548C490.503 762.259 485.78 766.32 481.751 769.935L486.261 794.331C480.802 798.083 474.967 801.816 469.419 805.48C462.625 800.474 455.758 795.133 449.014 790.023C443.054 793.483 436.124 796.399 429.794 799.191C429.597 807.532 429.448 815.271 428.674 823.598C422.402 825.604 415.808 827.872 409.42 829.351C404.46 822.6 398.727 816.049 393.175 809.785C387.227 810.567 380.193 811.428 374.275 811.53C371.478 819.358 368.423 827.09 365.112 834.714C358.853 835.006 351.627 834.928 345.292 835.005C342.546 827.059 339.855 819.095 337.221 811.111C329.921 810.273 324.508 809.189 317.373 807.671C312.232 813.919 306.949 821.364 302.089 827.928C295.794 825.6 288.891 823.383 282.502 821.199C282.155 812.78 281.99 804.353 282.008 795.927C274.648 792.89 269.384 789.764 262.568 785.763C257.007 791.188 250.951 796.083 244.48 800.382C239.02 796.113 232.786 792.088 226.975 788.329C228.935 780.543 231.918 772.634 233.976 764.574C228.415 759.505 223.838 754.562 218.827 749.008C211.474 751.849 204.084 754.59 196.656 757.229C192.526 751.83 188.349 745.507 184.46 739.856C188.967 734.121 193.639 727.954 198.518 722.582C194.527 716.64 192.244 711.971 189.247 705.575C181.218 705.516 172.866 705.772 164.813 705.913C162.619 698.892 160.601 691.817 158.761 684.694C164.709 680.855 170.74 677.144 176.849 673.565L172.224 651.212C164.764 649.721 157.176 647.289 149.892 645.058C149.859 638.106 149.904 631.155 150.028 624.204C157.255 621.448 164.429 619.51 171.908 617.625C172.054 610.59 173.247 602.044 174.194 595.075C167.208 591.137 160.639 586.374 154.157 581.672C155.676 575.561 158.042 568.234 159.851 562.097C167.717 561.414 174.89 561.456 182.773 561.452C185.862 554.311 189.006 547.194 192.206 540.103C187.203 534.139 180.407 527.337 174.956 521.6C179.139 515.305 183.141 509.274 187.605 503.18C195.46 505.203 203.293 507.31 211.102 509.502C215.77 503.953 221.218 498.753 226.452 493.747C222.579 485.869 218.791 477.438 215.049 469.456C221.611 464.753 228.02 459.838 234.263 454.719C240.755 460.008 248.725 465.289 255.7 470.105C261.27 466.019 267.72 462.46 273.915 459.431C272.372 451.621 270.53 443.587 268.847 435.783C275.82 432.74 282.693 429.474 289.455 425.988C296.203 432.652 300.829 438.955 306.443 446.491C313.834 444.311 320.693 442.911 328.247 441.317C330.516 433.148 332.474 424.477 334.464 416.203C341.008 416.107 347.77 415.618 354.324 415.238ZM371.256 758.226C446.299 752.274 502.274 686.559 496.214 611.524C490.153 536.489 424.358 480.609 349.332 486.778C274.458 492.933 218.717 558.566 224.765 633.448C230.813 708.33 296.365 764.166 371.256 758.226ZM529.196 704.04C533.591 710.157 537.904 716.277 541.802 722.729L542.486 722.719C545.479 718.406 547.423 712.872 550.241 708.502C547.258 703.198 543.9 697.112 539.999 692.503C540.337 690.591 541.069 687.604 540.706 685.825L540.274 685.373C536.318 688.466 531.564 699.101 529.196 704.04ZM504.448 746.907C505.63 748.672 507.753 752.259 509.255 753.39C510.25 752.674 510.382 752.02 510.901 750.879C513.898 748.978 519.174 747.119 522.622 745.768C528.275 743.673 533.958 741.817 539.139 738.73C528.044 740.614 523.077 738.13 512.637 737.321C509.777 741.07 507.677 743.442 504.448 746.907Z"/><defs><linearGradient id="gradient_0" gradientUnits="userSpaceOnUse" x1="501.18692" y1="705.17896" x2="219.42029" y2="541.1369"><stop offset="0" stop-color="#9598DA"/><stop offset="1" stop-color="#C6CCFB"/></linearGradient></defs><path fill="url(#gradient_0)" d="M349.445 459.771C439.846 453.667 518.058 522.047 524.083 612.453C530.108 702.859 461.661 781.012 371.25 786.958C280.95 792.898 202.913 724.553 196.895 634.258C190.878 543.963 259.155 465.867 349.445 459.771ZM371.256 758.226C446.299 752.274 502.274 686.559 496.214 611.524C490.153 536.489 424.358 480.609 349.332 486.778C274.458 492.933 218.717 558.566 224.765 633.448C230.813 708.33 296.365 764.166 371.256 758.226Z"/><path fill="#7475BD" d="M354.286 476.203C436.629 472.105 506.677 535.589 510.676 617.936C514.675 700.283 451.107 770.255 368.755 774.155C286.543 778.048 216.716 714.612 212.724 632.405C208.732 550.197 272.084 480.294 354.286 476.203ZM371.256 758.226C446.299 752.274 502.274 686.559 496.214 611.524C490.153 536.489 424.358 480.609 349.332 486.778C274.458 492.933 218.717 558.566 224.765 633.448C230.813 708.33 296.365 764.166 371.256 758.226Z"/><path fill="#010051" d="M349.332 486.778C424.358 480.609 490.153 536.489 496.214 611.524C502.274 686.559 446.299 752.274 371.256 758.226C296.365 764.166 230.813 708.33 224.765 633.448C218.717 558.566 274.458 492.933 349.332 486.778ZM276.041 618.32C295.925 609.812 303.218 574.979 279.792 573.613C264.729 578.039 259.45 596.528 263.15 610.659C264.817 617.025 269.749 619.402 276.041 618.32ZM362.258 635.695C371.176 634.303 377.282 625.951 375.904 617.031C374.525 608.111 366.184 601.992 357.261 603.357C348.32 604.724 342.185 613.088 343.566 622.028C344.947 630.968 353.321 637.09 362.258 635.695ZM427.887 617.638C435.834 615.22 442.741 610.574 443.393 601.471C443.671 597.506 442.342 593.596 439.707 590.622C434.373 584.532 426.958 584.078 419.559 583.715C416.681 594.185 418.936 610.543 427.887 617.638Z"/><defs><linearGradient id="gradient_1" gradientUnits="userSpaceOnUse" x1="446.76385" y1="609.63861" x2="244.82782" y2="605.51001"><stop offset="0" stop-color="#47469E"/><stop offset="1" stop-color="#7A7DD0"/></linearGradient></defs><path fill="url(#gradient_1)" d="M278.633 537.266C291.089 526.397 302.008 520.38 316.761 513.515C323.153 536.631 330.26 569.768 358.072 574.291C394.723 580.251 404.384 544.324 409.281 515.94C423.376 523.352 431.799 528.079 443.422 539.277C439.459 541.7 435.538 544.191 431.66 546.749C417.57 556.115 406.224 566.785 402.84 584.109C400.272 597.869 403.366 612.084 411.423 623.531C420.235 636.308 432.087 641.914 446.933 644.617C447.435 650.013 437.044 663.903 434.53 669.132C433.653 670.956 430.297 677.748 429.262 679.134C417.786 667.469 410.244 660.813 396.827 651.554C369.304 676.331 347.979 673.824 322.329 649.083C301.197 667.558 289.546 679.349 270.908 699.878C256.563 683.249 247.593 666.032 243 644.6C255.554 645.773 262.373 645.579 274.968 643.573C305.17 638.764 326.306 615.055 320.652 583.645C316.636 561.338 296.392 549.063 278.633 537.266ZM362.258 635.695C371.176 634.303 377.282 625.951 375.904 617.031C374.525 608.111 366.184 601.992 357.261 603.357C348.32 604.724 342.185 613.088 343.566 622.028C344.947 630.968 353.321 637.09 362.258 635.695Z"/><path fill="#B9D4F1" d="M267.209 547.838C280.498 557.128 300.075 569.198 304.615 585.018C307.128 593.735 305.936 603.101 301.321 610.911C296.334 619.37 287.666 624.364 278.405 626.833C260.721 630.334 252.627 623.535 240.405 611.594C246.163 584.12 248.598 570.922 267.209 547.838ZM276.041 618.32C295.925 609.812 303.218 574.979 279.792 573.613C264.729 578.039 259.45 596.528 263.15 610.659C264.817 617.025 269.749 619.402 276.041 618.32Z"/><defs><linearGradient id="gradient_2" gradientUnits="userSpaceOnUse" x1="322.10413" y1="706.99237" x2="398.09332" y2="708.98767"><stop offset="0" stop-color="#4C4B9F"/><stop offset="1" stop-color="#7578C1"/></linearGradient></defs><path fill="url(#gradient_2)" d="M359.828 685.084C367.22 684.696 373.219 684.27 380.01 681.191C381.908 680.33 384.311 679.051 386.186 678.413C389.522 683.108 396.371 688.297 400.536 692.804C404.904 696.8 411.66 703.249 416.336 706.713L416.716 707.46L407.926 725.71C403.281 727.311 398.03 728.988 393.565 730.921C374.051 742.531 340.571 738.542 320.221 730.793C333.014 712.983 344.295 700.359 359.828 685.084Z"/><path fill="#B9D4F1" d="M400.536 692.804C404.904 696.8 411.66 703.249 416.336 706.713L416.716 707.46L407.926 725.71C403.281 727.311 398.03 728.988 393.565 730.921C390.11 723.483 396.025 699.75 400.536 692.804Z"/><defs><linearGradient id="gradient_3" gradientUnits="userSpaceOnUse" x1="424.99289" y1="574.70782" x2="485.66849" y2="614.22589"><stop offset="0" stop-color="#4B4894"/><stop offset="1" stop-color="#8B91E6"/></linearGradient></defs><path fill="url(#gradient_3)" d="M419.559 583.715C427.721 566.077 438.141 562.122 453.504 550.485C473.844 577.748 477.664 593.611 479.493 626.8C461.454 630.432 441.839 631.693 427.887 617.638C435.834 615.22 442.741 610.574 443.393 601.471C443.671 597.506 442.342 593.596 439.707 590.622C434.373 584.532 426.958 584.078 419.559 583.715Z"/><path fill="#4843AE" d="M359.068 506.41C372.701 506.548 381.599 508.054 394.86 510.974C392.694 520.178 390.381 530.993 387.345 539.799C382.157 552.022 373.894 564.159 357.672 558.578C349.871 555.895 345.178 547.377 341.97 540.129L339.897 534.876C336.757 526.575 334.044 517.693 331.405 509.225C340.601 507.655 349.733 506.549 359.068 506.41Z"/><defs><linearGradient id="gradient_4" gradientUnits="userSpaceOnUse" x1="365.4068" y1="535.59943" x2="360.2988" y2="558.34253"><stop offset="0" stop-color="#6869BD"/><stop offset="1" stop-color="#7D80D3"/></linearGradient></defs><path fill="url(#gradient_4)" d="M341.97 540.129C350.882 533.592 370.579 537.176 381.385 538.837C383.374 539.143 385.361 539.464 387.345 539.799C382.157 552.022 373.894 564.159 357.672 558.578C349.871 555.895 345.178 547.377 341.97 540.129Z"/><path fill="#9B98DD" d="M331.405 509.225C340.601 507.655 349.733 506.549 359.068 506.41C355.529 522.358 353.856 525.939 339.897 534.876C336.757 526.575 334.044 517.693 331.405 509.225Z"/><path fill="#4843AE" d="M466.709 644.116C467.915 642.763 475.657 641.899 477.172 642.587C478.348 645.476 473.605 656.751 472.233 660.09L471.272 660.807C467.718 668.546 464.037 676.983 459.362 684.168C456.07 689.226 451.676 694.326 448.222 699.495C442.003 692.615 435.682 685.827 429.262 679.134C430.297 677.748 433.653 670.956 434.53 669.132C437.044 663.903 447.435 650.013 446.933 644.617C453.763 645.298 459.916 645.559 466.709 644.116Z"/><path fill="#000020" d="M466.709 644.116C467.915 642.763 475.657 641.899 477.172 642.587C478.348 645.476 473.605 656.751 472.233 660.09L471.272 660.807C473.086 654.951 474.798 649.064 476.408 643.149C473.183 643.541 469.949 643.863 466.709 644.116Z"/><path fill="#9B98DD" d="M325.357 672.851C330.727 676.1 334.727 678.277 340.283 681.018C326.968 693.706 315.134 707.861 305.005 723.213C304.306 724.255 304.593 723.961 303.641 724.677C300.399 724.48 295.205 720.37 292.322 718.373C298.715 701.999 312.735 685.042 325.357 672.851Z"/><path fill="#000020" d="M386.186 678.413C389.862 677.713 416.017 703.198 416.648 706.239L416.336 706.713C411.66 703.249 404.904 696.8 400.536 692.804C396.371 688.297 389.522 683.108 386.186 678.413Z"/><defs><linearGradient id="gradient_5" gradientUnits="userSpaceOnUse" x1="713.88782" y1="773.47272" x2="576.25763" y2="757.60168"><stop offset="0" stop-color="#323381"/><stop offset="1" stop-color="#4D4D97"/></linearGradient></defs><path fill="url(#gradient_5)" d="M638.277 649.563L651.258 650.01C652.188 656.603 655.101 666.54 656.899 673.24C670.567 675.016 690.5 682.072 701.737 689.699C707.314 684.918 712.825 680.059 718.268 675.125L729.163 684.333C726.101 691.125 722.339 697.655 719.214 704.756C723.583 710.395 727.341 716.482 730.424 722.914C736.577 734.514 736.449 740.046 740.287 750.531C742.412 751.106 744.243 751.663 746.433 751.964C750.728 752.652 756.237 753.644 760.517 754.136C760.512 759.697 760.526 763.025 761.122 768.584C755.407 770.237 749.668 771.975 743.876 773.318C742.133 773.708 741.749 773.658 740.572 775.019C739.613 777.487 738.376 785.723 737.353 789.552C732.824 806.496 727.948 812.085 719.071 825.945C722.666 832.824 726.144 839.762 729.504 846.758L723.535 852.864C718.103 850.065 709.921 846.182 704.867 843.196C703.929 842.697 702.488 841.603 701.535 842.216C687.504 851.233 674.961 856.023 658.753 860.137C655.804 868.033 653.093 876.016 650.622 884.074C647.198 883.925 643.776 883.728 640.357 883.486C638.145 875.206 635.419 867.955 633.039 859.939C626.594 858.854 620.24 857.288 614.029 855.256C604.246 851.668 597.528 847.523 589.297 841.346C582.068 845.585 574.41 849.331 566.899 853.054L561.162 847.011C564.047 839.547 567.353 832.253 571.066 825.164C558.624 809.86 555.026 797.773 550.857 779.091C542.663 776.691 535.336 774.042 527.37 771.025L527.482 760.783C536.458 757.857 542.614 756.154 551.811 754.21C554.265 737.012 559.951 722.225 570.898 708.72C565.342 701.18 561.767 697.207 556.927 688.681L569.299 678.708C574.46 683.62 580.409 688.487 585.917 692.99C605.423 679.955 610.306 678.104 633.007 673.877C634.899 665.802 636.656 657.696 638.277 649.563Z"/><defs><linearGradient id="gradient_6" gradientUnits="userSpaceOnUse" x1="671.70868" y1="789.79535" x2="558.5921" y2="688.39722"><stop offset="0" stop-color="#8385CE"/><stop offset="1" stop-color="#CEE1FE"/></linearGradient></defs><path fill="url(#gradient_6)" d="M638.277 649.563L651.258 650.01C652.188 656.603 655.101 666.54 656.899 673.24C670.567 675.016 690.5 682.072 701.737 689.699C707.314 684.918 712.825 680.059 718.268 675.125L729.163 684.333C726.101 691.125 722.339 697.655 719.214 704.756C723.583 710.395 727.341 716.482 730.424 722.914C723.051 730.227 718.355 736.186 711.799 743.498C701.077 711.485 669.056 691.666 635.622 696.348C602.188 701.031 576.843 728.884 575.327 762.611C573.812 796.337 596.557 826.351 629.436 834.013C627.569 835.385 628.444 834.764 627.471 836.23C624.517 840.685 619.692 844.414 616.644 849.011C614.481 852.272 616.848 851.715 614.029 855.256C604.246 851.668 597.528 847.523 589.297 841.346C582.068 845.585 574.41 849.331 566.899 853.054L561.162 847.011C564.047 839.547 567.353 832.253 571.066 825.164C558.624 809.86 555.026 797.773 550.857 779.091C542.663 776.691 535.336 774.042 527.37 771.025L527.482 760.783C536.458 757.857 542.614 756.154 551.811 754.21C554.265 737.012 559.951 722.225 570.898 708.72C565.342 701.18 561.767 697.207 556.927 688.681L569.299 678.708C574.46 683.62 580.409 688.487 585.917 692.99C605.423 679.955 610.306 678.104 633.007 673.877C634.899 665.802 636.656 657.696 638.277 649.563Z"/><defs><linearGradient id="gradient_7" gradientUnits="userSpaceOnUse" x1="715.03607" y1="829.76221" x2="669.68817" y2="789.05701"><stop offset="0" stop-color="#6363BC"/><stop offset="1" stop-color="#8386CF"/></linearGradient></defs><path fill="url(#gradient_7)" d="M730.424 722.914C736.577 734.514 736.449 740.046 740.287 750.531C742.412 751.106 744.243 751.663 746.433 751.964C750.728 752.652 756.237 753.644 760.517 754.136C760.512 759.697 760.526 763.025 761.122 768.584C755.407 770.237 749.668 771.975 743.876 773.318C742.133 773.708 741.749 773.658 740.572 775.019C739.613 777.487 738.376 785.723 737.353 789.552C732.824 806.496 727.948 812.085 719.071 825.945C722.666 832.824 726.144 839.762 729.504 846.758L723.535 852.864C718.103 850.065 709.921 846.182 704.867 843.196C703.929 842.697 702.488 841.603 701.535 842.216C687.504 851.233 674.961 856.023 658.753 860.137C655.804 868.033 653.093 876.016 650.622 884.074C647.198 883.925 643.776 883.728 640.357 883.486C638.145 875.206 635.419 867.955 633.039 859.939C626.594 858.854 620.24 857.288 614.029 855.256C616.848 851.715 614.481 852.272 616.644 849.011C619.692 844.414 624.517 840.685 627.471 836.23C628.444 834.764 627.569 835.385 629.436 834.013C654.17 839.777 680.087 831.709 697.18 812.925C714.272 794.141 719.865 767.58 711.799 743.498C718.355 736.186 723.051 730.227 730.424 722.914Z"/><path fill="#4843AE" d="M704.867 843.196C705.185 842.513 717.648 825.473 717.702 825.437L719.071 825.945C722.666 832.824 726.144 839.762 729.504 846.758L723.535 852.864C718.103 850.065 709.921 846.182 704.867 843.196Z"/><path fill="#4843AE" d="M746.433 751.964C750.728 752.652 756.237 753.644 760.517 754.136C760.512 759.697 760.526 763.025 761.122 768.584C755.407 770.237 749.668 771.975 743.876 773.318C744.05 766.031 748.163 756.276 746.433 751.964Z"/><path fill="#4843AE" d="M638.1 716.748C665.155 713.042 690.103 731.938 693.866 758.984C697.63 786.031 678.788 811.019 651.749 814.841C624.629 818.674 599.548 799.762 595.773 772.634C591.998 745.505 610.963 720.465 638.1 716.748Z"/><path fill="#FEFDFE" d="M641.546 740.181C655.91 738.074 669.266 747.999 671.391 762.361C673.515 776.722 663.604 790.09 649.246 792.23C634.863 794.375 621.469 784.445 619.341 770.06C617.214 755.675 627.159 742.293 641.546 740.181Z"/><path fill="#010051" d="M556.779 122.08C565.837 121.648 573.864 120.809 582.882 119.87L598.039 149.782C606.458 149.856 617.422 149.91 625.622 151.479C631.406 141.764 637.278 132.102 643.235 122.493C648.988 123.993 663.024 127.137 668.873 127.69C670.401 138.301 671.342 149.421 672.146 160.106C682.072 163.187 690.63 166.06 700.244 170.03C708.017 162.151 716.417 155.14 724.328 147.413C732.142 151.248 740.162 155.079 747.828 159.173L741.723 191.85C749.747 197.814 757.675 203.749 765.246 210.289C775.055 205.12 784.03 200.988 794.127 196.396C800.415 202.817 806.596 209.342 812.666 215.968C807.993 225.596 802.668 234.895 796.731 243.8C803.007 252.242 808.456 259.81 814.068 268.706C823.374 266.863 836.347 265.839 845.908 264.96C850.365 272.738 854.598 280.643 858.603 288.664C853.215 294.478 841.015 307.048 836.815 313.072C839.853 321.738 842.796 330.04 845.379 338.867C856.254 340.166 866.084 341.52 876.809 343.733C878.615 352.745 880.12 361.814 881.32 370.927C873.019 375.235 861.641 381.815 853.382 385.151C853.695 394.319 853.896 403.489 853.984 412.661C863.738 417.418 872.971 422.846 882.379 428.256C880.586 436.487 879.008 444.764 877.649 453.079C868.318 455.574 857.047 458.308 847.443 459.701C845.341 468.308 841.885 478.031 840.178 486.277C848.255 493.631 854.567 500.479 861.99 508.568C858.22 516.476 853.959 525 850.564 533.014C841.137 531.937 830.22 531.206 821.042 529.533C816.804 537.006 810.032 549.456 804.759 555.776C809.76 564.165 816.259 574.608 820.511 583.207C814.322 589.736 808.449 596.331 802.363 602.926C794.107 600.108 782.842 595.15 774.868 591.36C768.239 597.266 759.5 605.641 752.465 610.609C755.499 620.521 759.827 633.503 761.934 643.439C755.387 647.593 748.559 652.084 741.818 655.842C735.893 651.949 730.858 649.541 724.969 646.052C722.528 644.605 716.641 638.006 714.355 635.762C707.496 639.417 701.895 642.218 694.734 645.378C693.999 648.56 693.376 651.767 692.867 654.992C688.849 654.077 683.381 652.658 679.4 652.281C676.99 643.174 674.109 631.942 670.332 623.282C668.599 622.622 666.377 621.693 664.619 621.251C655.631 620.795 646.606 621.343 637.621 621.804C630.384 622.175 621.657 621.094 617.845 628.437C615.601 633.132 611.408 650.901 609.741 657.06C600.426 661.002 598.939 663.116 590.744 667.469C584.531 663.282 575.741 656.088 574.04 648.545C571.362 646.063 566.858 643.115 563.756 640.943L563.596 630.278L570.906 626.316C573.783 623.223 578.079 620.092 581.477 617.439L581.439 608.138C580.411 601.53 579.639 593.366 578.846 586.664C576.978 584.434 564.523 580.703 560.59 579.284C559.316 575.298 558.898 574.247 556.87 570.588L565.297 560.275C572.581 561.133 579.916 562.668 587.25 563.265C616.327 565.632 640.608 562.373 666.969 549.499C654.57 516.728 631.196 470.368 587.78 484.306C569.589 490.146 561.513 503.512 553.299 519.716C549.634 519.629 546.325 519.521 542.666 519.733C540.964 515.194 539.799 511.222 537.476 506.944C537.566 504.339 541.143 498.507 542.579 495.952C541.002 494.206 539.982 492.769 538.608 490.883C532.196 483.552 524.714 473.196 516.478 467.497C515.789 467.02 512.919 459.032 512.179 457.243C503.585 462.666 497.95 465.031 488.367 468.154L491.783 452.026C502.282 442.039 511.83 438.525 517.762 424.041C536.488 378.321 489.657 349.091 453.496 334.036C437.775 366.817 434.999 400.498 443.781 435.533L438.746 438.59C437.529 430.756 435.599 422.428 434.216 414.48C426.694 412.114 419.972 410.417 412.317 408.588C408.11 407.74 403.913 406.839 399.729 405.884C396.145 407.973 394.871 409.043 392.474 412.454C389.018 417.362 385.528 422.247 382.005 427.108C379.411 427.015 375.555 427.163 373.585 425.462L373.319 424.519C370.207 415.414 368.573 410.864 363.858 402.356C352.44 402.535 337.213 404.064 325.524 404.83C323.618 410.201 320.75 418.729 317.882 423.345C316.382 420.392 315.006 417.123 313.661 414.075C312.968 409.915 312.389 405.736 311.924 401.545C323.39 397.159 332.503 393.683 343.47 388.008C343.434 378.722 344.877 368.379 346.768 359.238C338.133 353.917 329.589 348.45 321.14 342.84C323.322 333.692 325.704 324.594 328.285 315.551C337.032 314.814 350.699 314.484 359.501 314.982C363.045 305.104 366.858 297.078 371.959 287.88C365.524 279.954 358.547 271.599 352.415 263.485C357.331 256.33 362.197 249.14 367.013 241.917C376.513 243.784 387.986 245.817 397.203 248.338C402.761 240.601 409.115 233.468 416.16 227.056C412.006 218.128 407.945 209.156 403.977 200.144C411.463 193.363 418.924 186.62 426.907 180.424C435.347 185.535 444.154 190.711 452.411 196.063C460.891 189.084 468.692 184.523 478.207 179.225C476.973 170.692 476.181 157.774 474.411 149.943C482.675 145.402 490.69 141.802 499.337 138.05C506.694 144.848 516.279 153.438 522.809 161.014C530.626 158.294 539.843 155.237 548.019 153.761C550.768 143.154 553.689 132.592 556.779 122.08ZM555.611 264.449C561.35 280.616 577.034 304.483 588.595 316.889C592.172 317.219 608.514 318.579 610.921 316.717C625.483 298.337 634.281 287.336 644.368 265.65C624.933 260.455 609.09 258.403 588.901 259.71C577.559 260.59 566.728 261.866 555.611 264.449ZM710.757 427.027C721.005 431.383 729.376 434.022 740.126 436.984C743.832 414.979 745.38 394.44 741.356 372.269C740.562 367.893 739.264 356.382 735.537 354.015C718.055 362.694 682.376 389.642 693.027 413.929C695.65 419.911 704.989 424.281 710.757 427.027Z"/><path fill="#010051" d="M556.779 122.08C565.837 121.648 573.864 120.809 582.882 119.87L598.039 149.782C606.458 149.856 617.422 149.91 625.622 151.479C631.406 141.764 637.278 132.102 643.235 122.493C648.988 123.993 663.024 127.137 668.873 127.69C670.401 138.301 671.342 149.421 672.146 160.106C682.072 163.187 690.63 166.06 700.244 170.03C708.017 162.151 716.417 155.14 724.328 147.413C732.142 151.248 740.162 155.079 747.828 159.173L741.723 191.85C749.747 197.814 757.675 203.749 765.246 210.289C775.055 205.12 784.03 200.988 794.127 196.396C800.415 202.817 806.596 209.342 812.666 215.968C807.993 225.596 802.668 234.895 796.731 243.8C803.007 252.242 808.456 259.81 814.068 268.706C823.374 266.863 836.347 265.839 845.908 264.96C850.365 272.738 854.598 280.643 858.603 288.664C853.215 294.478 841.015 307.048 836.815 313.072C839.853 321.738 842.796 330.04 845.379 338.867C856.254 340.166 866.084 341.52 876.809 343.733C878.615 352.745 880.12 361.814 881.32 370.927C873.019 375.235 861.641 381.815 853.382 385.151C853.695 394.319 853.896 403.489 853.984 412.661C863.738 417.418 872.971 422.846 882.379 428.256C880.586 436.487 879.008 444.764 877.649 453.079C868.318 455.574 857.047 458.308 847.443 459.701C845.341 468.308 841.885 478.031 840.178 486.277C848.255 493.631 854.567 500.479 861.99 508.568C858.22 516.476 853.959 525 850.564 533.014C841.137 531.937 830.22 531.206 821.042 529.533C816.804 537.006 810.032 549.456 804.759 555.776C809.76 564.165 816.259 574.608 820.511 583.207C814.322 589.736 808.449 596.331 802.363 602.926C794.107 600.108 782.842 595.15 774.868 591.36C768.239 597.266 759.5 605.641 752.465 610.609C755.499 620.521 759.827 633.503 761.934 643.439C755.387 647.593 748.559 652.084 741.818 655.842C735.893 651.949 730.858 649.541 724.969 646.052C722.528 644.605 716.641 638.006 714.355 635.762C707.496 639.417 701.895 642.218 694.734 645.378C693.999 648.56 693.376 651.767 692.867 654.992C688.849 654.077 683.381 652.658 679.4 652.281C676.99 643.174 674.109 631.942 670.332 623.282C668.599 622.622 666.377 621.693 664.619 621.251C655.631 620.795 646.606 621.343 637.621 621.804C630.384 622.175 621.657 621.094 617.845 628.437C615.601 633.132 611.408 650.901 609.741 657.06C600.426 661.002 598.939 663.116 590.744 667.469C584.531 663.282 575.741 656.088 574.04 648.545C571.362 646.063 566.858 643.115 563.756 640.943L563.596 630.278L570.906 626.316C573.783 623.223 578.079 620.092 581.477 617.439L581.439 608.138C585.813 608.872 590.637 608.625 595.086 608.735C618.286 609.312 641.647 605.824 663.672 598.534C707.322 584.088 746.625 552.133 771.203 513.458C799.34 469.182 810.539 408.5 798.94 357.257C786.835 304.732 754.415 259.141 708.774 230.464C661.456 201.436 604.594 192.253 550.544 204.911C503.342 216.309 461.653 243.946 432.776 282.984C423.214 296.109 418.927 306.026 410.827 319.025L410.67 319.564C408.649 326.304 404.927 333.739 402.674 340.707C394.652 365.518 392.166 386.559 392.474 412.454C389.018 417.362 385.528 422.247 382.005 427.108C379.411 427.015 375.555 427.163 373.585 425.462L373.319 424.519C370.207 415.414 368.573 410.864 363.858 402.356C352.44 402.535 337.213 404.064 325.524 404.83C323.618 410.201 320.75 418.729 317.882 423.345C316.382 420.392 315.006 417.123 313.661 414.075C312.968 409.915 312.389 405.736 311.924 401.545C323.39 397.159 332.503 393.683 343.47 388.008C343.434 378.722 344.877 368.379 346.768 359.238C338.133 353.917 329.589 348.45 321.14 342.84C323.322 333.692 325.704 324.594 328.285 315.551C337.032 314.814 350.699 314.484 359.501 314.982C363.045 305.104 366.858 297.078 371.959 287.88C365.524 279.954 358.547 271.599 352.415 263.485C357.331 256.33 362.197 249.14 367.013 241.917C376.513 243.784 387.986 245.817 397.203 248.338C402.761 240.601 409.115 233.468 416.16 227.056C412.006 218.128 407.945 209.156 403.977 200.144C411.463 193.363 418.924 186.62 426.907 180.424C435.347 185.535 444.154 190.711 452.411 196.063C460.891 189.084 468.692 184.523 478.207 179.225C476.973 170.692 476.181 157.774 474.411 149.943C482.675 145.402 490.69 141.802 499.337 138.05C506.694 144.848 516.279 153.438 522.809 161.014C530.626 158.294 539.843 155.237 548.019 153.761C550.768 143.154 553.689 132.592 556.779 122.08Z"/><defs><linearGradient id="gradient_8" gradientUnits="userSpaceOnUse" x1="775.21136" y1="542.36023" x2="454.48035" y2="230.4147"><stop offset="0" stop-color="#8C8EDA"/><stop offset="1" stop-color="#B6BCF8"/></linearGradient></defs><path fill="url(#gradient_8)" d="M419.684 267.472C453.227 222.009 509.319 190.43 564.91 182.001C624.09 173.233 684.346 188.06 732.699 223.289C780.56 258.244 812.272 311.051 820.637 369.724C828.977 429.52 813.547 490.202 777.656 538.749C749.347 576.778 710.128 605.285 665.218 620.475C665.019 620.734 664.819 620.993 664.619 621.251C655.631 620.795 646.606 621.343 637.621 621.804C630.384 622.175 621.657 621.094 617.845 628.437C615.601 633.132 611.408 650.901 609.741 657.06C600.426 661.002 598.939 663.116 590.744 667.469C584.531 663.282 575.741 656.088 574.04 648.545C571.362 646.063 566.858 643.115 563.756 640.943L563.596 630.278L570.906 626.316C573.783 623.223 578.079 620.092 581.477 617.439L581.439 608.138C585.813 608.872 590.637 608.625 595.086 608.735C618.286 609.312 641.647 605.824 663.672 598.534C707.322 584.088 746.625 552.133 771.203 513.458C799.34 469.182 810.539 408.5 798.94 357.257C786.835 304.732 754.415 259.141 708.774 230.464C661.456 201.436 604.594 192.253 550.544 204.911C503.342 216.309 461.653 243.946 432.776 282.984C423.214 296.109 418.927 306.026 410.827 319.025C405.603 323.569 404.179 328.248 400.246 318.777C401.065 314.81 406.683 300.088 405.35 297.481C404.545 297.256 403.776 297.149 402.941 297.095C403.631 295.674 407.034 293.899 408.67 292.847C408.984 292.16 410.345 289.5 410.494 288.966C411.285 286.126 414.125 286.203 414.959 284.358C414.641 284.05 413.047 282.456 413.074 282.376C413.812 280.209 418.164 276.519 418.946 274.555C419.901 272.154 419.809 269.628 419.684 267.472Z"/><path fill="#010051" d="M570.906 626.316C584.323 627.608 597.379 628.855 610.847 628.199C612.704 628.108 616.295 627.883 617.845 628.437C615.601 633.132 611.408 650.901 609.741 657.06C600.426 661.002 598.939 663.116 590.744 667.469C584.531 663.282 575.741 656.088 574.04 648.545C571.362 646.063 566.858 643.115 563.756 640.943L563.596 630.278L570.906 626.316Z"/><path fill="#9B98DD" d="M373.319 424.519C373.483 421.768 372.818 416.898 372.679 413.996C372.358 407.317 372.175 400.579 372.562 393.899C374.871 347.909 391.328 303.754 419.684 267.472C419.809 269.628 419.901 272.154 418.946 274.555C418.164 276.519 413.812 280.209 413.074 282.376C413.047 282.456 414.641 284.05 414.959 284.358C414.125 286.203 411.285 286.126 410.494 288.966C410.345 289.5 408.984 292.16 408.67 292.847C407.034 293.899 403.631 295.674 402.941 297.095C403.776 297.149 404.545 297.256 405.35 297.481C406.683 300.088 401.065 314.81 400.246 318.777C404.179 328.248 405.603 323.569 410.827 319.025L410.67 319.564C408.649 326.304 404.927 333.739 402.674 340.707C394.652 365.518 392.166 386.559 392.474 412.454C389.018 417.362 385.528 422.247 382.005 427.108C379.411 427.015 375.555 427.163 373.585 425.462L373.319 424.519Z"/><defs><linearGradient id="gradient_9" gradientUnits="userSpaceOnUse" x1="736.57385" y1="396.38196" x2="528.88708" y2="415.46252"><stop offset="0" stop-color="#383290"/><stop offset="1" stop-color="#6C6EB6"/></linearGradient></defs><path fill="url(#gradient_9)" d="M687.354 269.903C707.817 282.951 714.296 292.304 730.13 308.898C703.298 329.051 666.914 354.874 661.315 390.731C658.758 407.1 662.592 428.072 672.933 441.308C688.989 461.859 714.609 474.158 738.59 482.828C727.108 502.767 713.516 517.624 695.615 531.942C683.925 510.007 665.079 476.208 640.342 466.215C630.391 462.194 613.695 471.686 603.931 472.448C590.278 473.514 577.387 462.947 563.623 470.228C553.271 475.704 549.095 486.98 542.579 495.952C541.002 494.206 539.982 492.769 538.608 490.883C532.196 483.552 524.714 473.196 516.478 467.497C515.789 467.02 512.919 459.032 512.179 457.243C522.414 448.336 524.694 447.177 530.604 434.643C532.014 431.456 533.226 428.185 534.231 424.848C538.98 408.636 538.087 389.79 531.818 374.025C530.598 370.958 527.432 365.455 525.782 362.47L526.912 362.321C526.958 360.349 527.006 357.637 525.707 355.695C524.749 354.263 523.454 351.212 523.151 348.691C521.511 334.999 519.968 320.583 519.86 306.773C520.232 306.349 520.603 305.925 520.974 305.5C521.008 302.092 519.541 298.133 519.97 294.827L520.44 291.248C529.733 311.362 545.269 337.461 567.211 345.681C570.512 346.921 573.987 347.639 577.51 347.807C585.432 348.236 593.437 346.524 601.237 346.453C609.32 346.38 617.689 348.11 625.855 347.294C630.5 346.817 635.033 345.571 639.27 343.607C655.41 336.183 664.807 321.01 673.384 306.187C680.124 294.54 682.468 282.044 687.354 269.903Z"/><path fill="#7475BD" d="M530.604 434.643C531.949 435.956 533.11 437.21 533.218 439.188C533.282 440.363 532.883 441.611 532.585 442.731C530.703 449.794 534.98 472.033 534.755 481.863C536.15 483.822 538.847 487.821 539.151 490.203L538.608 490.883C532.196 483.552 524.714 473.196 516.478 467.497C515.789 467.02 512.919 459.032 512.179 457.243C522.414 448.336 524.694 447.177 530.604 434.643Z"/><path fill="#FEFDFE" d="M611.154 427.765C609.957 430.006 605.389 433.385 603.122 434.491C589.862 440.957 569.512 430.705 564.154 417.724C558.245 403.408 565.883 386.584 580.038 380.676C587.956 377.339 596.883 377.32 604.815 380.624C613.793 384.377 625.825 397.753 621.345 407.481C621.543 417.606 617.538 421.355 611.154 427.765Z"/><path fill="#7475BD" d="M611.154 427.765C609.957 430.006 605.389 433.385 603.122 434.491C589.862 440.957 569.512 430.705 564.154 417.724C558.245 403.408 565.883 386.584 580.038 380.676C587.956 377.339 596.883 377.32 604.815 380.624C613.793 384.377 625.825 397.753 621.345 407.481C620.15 400.123 618.084 394.203 611.662 389.589C606.419 385.885 599.924 384.403 593.593 385.467C587.351 386.575 582.118 390.289 578.708 395.598C575.243 400.965 574.114 407.512 575.581 413.73C579.694 431.047 596.371 434.973 611.154 427.765Z"/><defs><linearGradient id="gradient_10" gradientUnits="userSpaceOnUse" x1="673.94904" y1="593.72711" x2="532.52209" y2="210.51562"><stop offset="0" stop-color="#6C6CB1"/><stop offset="1" stop-color="#8284C8"/></linearGradient></defs><path fill="url(#gradient_10)" d="M410.827 319.025C418.927 306.026 423.214 296.109 432.776 282.984C461.653 243.946 503.342 216.309 550.544 204.911C604.594 192.253 661.456 201.436 708.774 230.464C754.415 259.141 786.835 304.732 798.94 357.257C810.539 408.5 799.34 469.182 771.203 513.458C746.625 552.133 707.322 584.088 663.672 598.534C641.647 605.824 618.286 609.312 595.086 608.735C590.637 608.625 585.813 608.872 581.439 608.138C580.411 601.53 579.639 593.366 578.846 586.664C582.523 587.729 590.816 587.814 595.006 587.963C641.558 589.609 689.838 571.959 723.709 539.553C761.278 504.224 783.113 455.306 784.323 403.75C785.162 357.898 766.156 309.375 734.189 276.465C698.763 239.904 650.169 219.056 599.262 218.578C551.875 217.997 503.652 237.913 469.483 270.736C439.792 299.258 420.409 335.878 414.333 376.69C412.66 387.925 412.475 397.226 412.317 408.588C408.11 407.74 403.913 406.839 399.729 405.884C396.145 407.973 394.871 409.043 392.474 412.454C392.166 386.559 394.652 365.518 402.674 340.707C404.927 333.739 408.649 326.304 410.67 319.564L410.827 319.025Z"/><path fill="#7475BD" d="M467.821 311.79C481.461 293.105 492.846 280.941 512.674 268.344C515.009 276.382 517.556 283.416 520.44 291.248L519.97 294.827C519.541 298.133 521.008 302.092 520.974 305.5C520.603 305.925 520.232 306.349 519.86 306.773C519.968 320.583 521.511 334.999 523.151 348.691C523.454 351.212 524.749 354.263 525.707 355.695C527.006 357.637 526.958 360.349 526.912 362.321L525.782 362.47C512.092 342.216 489.561 322.994 467.821 311.79Z"/><path fill="#B9D4F1" d="M587.972 245.209C614.616 243.164 636.774 248.051 661.642 256.674C654.966 279.522 636.603 325.202 611.198 329.948C603.891 330.464 585.433 331.168 580.119 327.403C559.09 312.506 544.229 279.568 537.09 256.569C554.721 249.109 569.139 246.549 587.972 245.209ZM555.611 264.449C561.35 280.616 577.034 304.483 588.595 316.889C592.172 317.219 608.514 318.579 610.921 316.717C625.483 298.337 634.281 287.336 644.368 265.65C624.933 260.455 609.09 258.403 588.901 259.71C577.559 260.59 566.728 261.866 555.611 264.449Z"/><path fill="#B9D4F1" d="M743.502 332.934C744.614 333.541 745.41 334.744 745.91 335.906C762.337 374.123 763.17 415.331 749.815 454.351C734.348 452.115 719.399 447.442 704.87 441.777C695.215 437.679 683.395 430.999 678.966 421.102C660.169 379.101 713.366 347.617 743.502 332.934ZM710.757 427.027C721.005 431.383 729.376 434.022 740.126 436.984C743.832 414.979 745.38 394.44 741.356 372.269C740.562 367.893 739.264 356.382 735.537 354.015C718.055 362.694 682.376 389.642 693.027 413.929C695.65 419.911 704.989 424.281 710.757 427.027Z"/><path fill="#4843AE" d="M217.796 307.392C220.401 287.278 218.654 293.626 237.88 291.473C239.399 296.627 240.796 301.168 242.59 306.257C253.596 308.329 259.177 309.578 269.549 314.326C274.092 310.409 277.644 307.465 282.51 303.962C286.93 306.959 291.655 310.932 296.073 314.178C294.631 319.371 293.25 324.53 291.541 329.644C296.349 336.571 300.025 343.473 303.978 350.888C320.022 353.79 317.309 357.213 319.706 371.336C316.36 373.481 313.004 375.608 309.636 377.718C307.205 398.514 310.05 398.516 298.903 418.311L293.97 412.753C289.464 413.408 286.612 414.385 282.363 415.916C277.627 418.316 257.645 427.46 255.529 429.933L255.397 430.864C255.759 434.889 255.517 440.815 255.468 444.993C253.179 447.539 252.617 448.602 250.9 451.54C246.137 448.868 240.848 445.328 235.942 442.462C225.913 446.25 222.341 448.957 213.83 455.383C208.518 449.973 200.489 446.459 193.705 443.009C189.148 445.716 185.446 447.858 180.597 450.052C176.06 445.698 171.571 441.294 167.131 436.841C169.729 432.73 172.533 428.944 175.386 425.015C169.589 414.797 167.378 407.747 163.799 396.704C159.16 396.046 154.278 395.617 149.601 395.135C148.674 389.261 148.954 380.57 148.982 374.458C153.918 373.485 158.843 372.457 163.756 371.374C165.144 358.398 168.187 352.072 173.44 340.472C170.194 336.865 167.432 333.205 164.626 329.259C167.903 324.412 172.913 318.73 176.838 314.361C181.111 316.457 185.435 319.089 189.568 321.495C199.935 313.788 205.713 311.421 217.796 307.392ZM234.25 403.104C247.187 403.108 257.671 392.611 257.65 379.674C257.63 366.737 247.113 356.273 234.176 356.318C221.274 356.363 210.844 366.846 210.864 379.748C210.885 392.65 221.348 403.1 234.25 403.104Z"/><path fill="#9B98DD" d="M217.796 307.392C220.401 287.278 218.654 293.626 237.88 291.473C239.399 296.627 240.796 301.168 242.59 306.257C253.596 308.329 259.177 309.578 269.549 314.326C274.092 310.409 277.644 307.465 282.51 303.962C286.93 306.959 291.655 310.932 296.073 314.178C294.631 319.371 293.25 324.53 291.541 329.644C296.349 336.571 300.025 343.473 303.978 350.888C320.022 353.79 317.309 357.213 319.706 371.336C316.36 373.481 313.004 375.608 309.636 377.718C307.205 398.514 310.05 398.516 298.903 418.311L293.97 412.753C289.464 413.408 286.612 414.385 282.363 415.916C285.036 410.27 287.787 404.61 290.051 398.788C300.549 371.783 286.27 339.536 260.251 327.477C245.818 320.662 229.24 319.98 214.296 325.587C199.568 331.131 188.561 342.071 182.141 356.38C175.49 371.11 175.03 387.894 180.865 402.966C186.606 417.706 197.611 429.762 212.216 436.049C225.879 441.825 241.228 442.183 255.145 437.049C255.175 435.368 255.138 432.42 255.397 430.864C255.759 434.889 255.517 440.815 255.468 444.993C253.179 447.539 252.617 448.602 250.9 451.54C246.137 448.868 240.848 445.328 235.942 442.462C225.913 446.25 222.341 448.957 213.83 455.383C208.518 449.973 200.489 446.459 193.705 443.009C189.148 445.716 185.446 447.858 180.597 450.052C176.06 445.698 171.571 441.294 167.131 436.841C169.729 432.73 172.533 428.944 175.386 425.015C169.589 414.797 167.378 407.747 163.799 396.704C159.16 396.046 154.278 395.617 149.601 395.135C148.674 389.261 148.954 380.57 148.982 374.458C153.918 373.485 158.843 372.457 163.756 371.374C165.144 358.398 168.187 352.072 173.44 340.472C170.194 336.865 167.432 333.205 164.626 329.259C167.903 324.412 172.913 318.73 176.838 314.361C181.111 316.457 185.435 319.089 189.568 321.495C199.935 313.788 205.713 311.421 217.796 307.392Z"/><path fill="#7475BD" d="M233.391 336.752C257.849 335.97 278.312 355.159 279.101 379.617C279.89 404.075 260.707 424.543 236.25 425.34C211.782 426.137 191.302 406.944 190.512 382.476C189.723 358.007 208.922 337.534 233.391 336.752ZM234.25 403.104C247.187 403.108 257.671 392.611 257.65 379.674C257.63 366.737 247.113 356.273 234.176 356.318C221.274 356.363 210.844 366.846 210.864 379.748C210.885 392.65 221.348 403.1 234.25 403.104Z"/></svg>